<svg width="67" height="24" viewBox="0 0 67 24" fill="none" xmlns="http://www.w3.org/2000/svg">
<rect width="67" height="24" rx="12" fill="#F9F5FF"/>
<path d="M14.7546 17H11.4585V6.81818H14.859C15.8567 6.81818 16.7134 7.02202 17.4293 7.42969C18.1452 7.83404 18.6938 8.41572 19.0749 9.17472C19.4594 9.9304 19.6516 10.8369 19.6516 11.8942C19.6516 12.9548 19.4577 13.8662 19.07 14.6286C18.6855 15.3909 18.1287 15.9775 17.3995 16.3885C16.6703 16.7962 15.7887 17 14.7546 17ZM12.9947 15.6577H14.6701C15.4457 15.6577 16.0903 15.5118 16.604 15.2202C17.1178 14.9252 17.5022 14.4993 17.7575 13.9425C18.0127 13.3823 18.1403 12.6996 18.1403 11.8942C18.1403 11.0954 18.0127 10.4176 17.7575 9.8608C17.5056 9.30398 17.1294 8.88139 16.6289 8.59304C16.1284 8.30469 15.507 8.16051 14.7646 8.16051H12.9947V15.6577ZM24.7338 17.1541C23.9815 17.1541 23.3335 16.9934 22.79 16.6719C22.2497 16.3471 21.8321 15.8913 21.5371 15.3047C21.2454 14.7147 21.0996 14.0237 21.0996 13.2315C21.0996 12.4493 21.2454 11.7599 21.5371 11.1634C21.8321 10.5668 22.2431 10.1011 22.7701 9.76633C23.3004 9.43158 23.9202 9.2642 24.6294 9.2642C25.0603 9.2642 25.4779 9.33546 25.8823 9.47798C26.2866 9.6205 26.6496 9.84422 26.9711 10.1491C27.2926 10.4541 27.5461 10.8501 27.7317 11.3374C27.9173 11.8213 28.0101 12.4096 28.0101 13.1023V13.6293H21.9398V12.5156H26.5534C26.5534 12.1245 26.4739 11.7782 26.3148 11.4766C26.1557 11.1716 25.932 10.9313 25.6436 10.7557C25.3586 10.58 25.0239 10.4922 24.6394 10.4922C24.2218 10.4922 23.8572 10.5949 23.5456 10.8004C23.2374 11.0026 22.9988 11.2678 22.8297 11.5959C22.664 11.9207 22.5811 12.2737 22.5811 12.6548V13.5249C22.5811 14.0353 22.6706 14.4695 22.8496 14.8274C23.0319 15.1854 23.2855 15.4588 23.6103 15.6477C23.9351 15.8333 24.3146 15.9261 24.7488 15.9261C25.0305 15.9261 25.2873 15.8864 25.5194 15.8068C25.7514 15.724 25.9519 15.6013 26.1209 15.4389C26.29 15.2765 26.4192 15.076 26.5087 14.8374L27.9157 15.0909C27.803 15.5052 27.6008 15.8681 27.3091 16.1797C27.0208 16.4879 26.6578 16.7282 26.2203 16.9006C25.7862 17.0696 25.2907 17.1541 24.7338 17.1541ZM35.3817 11.228L34.0344 11.4666C33.9781 11.2943 33.8886 11.1302 33.766 10.9744C33.6467 10.8187 33.4843 10.6911 33.2788 10.5916C33.0733 10.4922 32.8164 10.4425 32.5082 10.4425C32.0872 10.4425 31.7359 10.5369 31.4542 10.7259C31.1725 10.9115 31.0316 11.1518 31.0316 11.4467C31.0316 11.7019 31.1261 11.9074 31.315 12.0632C31.5039 12.219 31.8088 12.3466 32.2298 12.446L33.4428 12.7244C34.1455 12.8868 34.6692 13.1371 35.0138 13.4751C35.3585 13.8132 35.5309 14.2524 35.5309 14.7926C35.5309 15.25 35.3983 15.6577 35.1332 16.0156C34.8713 16.3703 34.5051 16.6487 34.0344 16.8509C33.5671 17.053 33.0252 17.1541 32.4087 17.1541C31.5536 17.1541 30.8559 16.9718 30.3157 16.6072C29.7754 16.2393 29.444 15.7173 29.3214 15.0412L30.7582 14.8224C30.8477 15.197 31.0316 15.4804 31.31 15.6726C31.5884 15.8615 31.9513 15.956 32.3988 15.956C32.886 15.956 33.2754 15.8549 33.5671 15.6527C33.8588 15.4472 34.0046 15.197 34.0046 14.902C34.0046 14.6634 33.9151 14.4628 33.7362 14.3004C33.5605 14.138 33.2904 14.0154 32.9258 13.9325L31.6332 13.6491C30.9206 13.4867 30.3936 13.2282 30.0522 12.8736C29.7141 12.5189 29.5451 12.0698 29.5451 11.5263C29.5451 11.0755 29.671 10.6811 29.9229 10.343C30.1748 10.005 30.5228 9.74148 30.967 9.55256C31.4111 9.36032 31.9199 9.2642 32.4933 9.2642C33.3185 9.2642 33.9682 9.44318 34.4421 9.80114C34.9161 10.1558 35.2293 10.6314 35.3817 11.228ZM37.1653 17V9.36364H38.6518V17H37.1653ZM37.916 8.18537C37.6575 8.18537 37.4354 8.09919 37.2498 7.92685C37.0675 7.75118 36.9764 7.54238 36.9764 7.30043C36.9764 7.05516 37.0675 6.84635 37.2498 6.67401C37.4354 6.49834 37.6575 6.41051 37.916 6.41051C38.1745 6.41051 38.3949 6.49834 38.5772 6.67401C38.7628 6.84635 38.8556 7.05516 38.8556 7.30043C38.8556 7.54238 38.7628 7.75118 38.5772 7.92685C38.3949 8.09919 38.1745 8.18537 37.916 8.18537ZM43.8533 20.0227C43.2468 20.0227 42.7248 19.9432 42.2873 19.7841C41.8531 19.625 41.4985 19.4145 41.2234 19.1527C40.9483 18.8909 40.7428 18.6042 40.6069 18.2926L41.8846 17.7656C41.9741 17.9115 42.0934 18.0656 42.2425 18.228C42.395 18.3937 42.6005 18.5346 42.859 18.6506C43.1209 18.7666 43.4573 18.8246 43.8683 18.8246C44.4317 18.8246 44.8974 18.687 45.2653 18.4119C45.6332 18.1402 45.8171 17.706 45.8171 17.1094V15.608H45.7227C45.6332 15.7704 45.5039 15.951 45.3349 16.1499C45.1692 16.3487 44.9405 16.5211 44.6488 16.6669C44.3571 16.8127 43.9776 16.8857 43.5103 16.8857C42.9071 16.8857 42.3635 16.7448 41.8796 16.4631C41.399 16.178 41.0179 15.7588 40.7362 15.2053C40.4577 14.6484 40.3185 13.964 40.3185 13.152C40.3185 12.34 40.4561 11.6439 40.7312 11.0639C41.0096 10.4839 41.3907 10.0398 41.8746 9.73153C42.3585 9.41998 42.9071 9.2642 43.5202 9.2642C43.9942 9.2642 44.377 9.34375 44.6687 9.50284C44.9603 9.65862 45.1874 9.84091 45.3498 10.0497C45.5155 10.2585 45.6431 10.4425 45.7326 10.6016H45.842V9.36364H47.2987V17.169C47.2987 17.8253 47.1462 18.3639 46.8413 18.7848C46.5363 19.2057 46.1237 19.5173 45.6033 19.7195C45.0863 19.9216 44.503 20.0227 43.8533 20.0227ZM43.8384 15.6527C44.266 15.6527 44.6272 15.5533 44.9222 15.3544C45.2205 15.1522 45.4459 14.8639 45.5984 14.4893C45.7541 14.1115 45.832 13.6591 45.832 13.1321C45.832 12.6184 45.7558 12.166 45.6033 11.7749C45.4509 11.3838 45.2272 11.0788 44.9322 10.8601C44.6372 10.638 44.2726 10.527 43.8384 10.527C43.391 10.527 43.0181 10.643 42.7198 10.875C42.4215 11.1037 42.1961 11.4152 42.0437 11.8097C41.8945 12.2041 41.82 12.6449 41.82 13.1321C41.82 13.6326 41.8962 14.0717 42.0487 14.4496C42.2011 14.8274 42.4265 15.1224 42.7248 15.3345C43.0264 15.5466 43.3976 15.6527 43.8384 15.6527ZM50.7788 12.4659V17H49.2923V9.36364H50.7191V10.6065H50.8136C50.9892 10.2022 51.2643 9.87737 51.6388 9.6321C52.0167 9.38684 52.4923 9.2642 53.0657 9.2642C53.5861 9.2642 54.0418 9.37358 54.4329 9.59233C54.824 9.80777 55.1272 10.1293 55.3427 10.5568C55.5581 10.9844 55.6658 11.513 55.6658 12.1428V17H54.1793V12.3217C54.1793 11.7682 54.0352 11.3357 53.7468 11.0241C53.4585 10.7093 53.0624 10.5518 52.5586 10.5518C52.2139 10.5518 51.9073 10.6264 51.6388 10.7756C51.3737 10.9247 51.1632 11.1435 51.0075 11.4318C50.855 11.7169 50.7788 12.0616 50.7788 12.4659Z" fill="#6941C6"/>
</svg>
