<svg width="106" height="24" viewBox="0 0 106 24" fill="none" xmlns="http://www.w3.org/2000/svg">
<g style="mix-blend-mode:multiply">
<rect width="106" height="24" rx="12" fill="#FDF2FA"/>
<path d="M11.5991 17V6.81818H15.2283C16.0205 6.81818 16.6767 6.96236 17.1971 7.25071C17.7174 7.53906 18.1069 7.93347 18.3654 8.43395C18.6239 8.93111 18.7532 9.49124 18.7532 10.1143C18.7532 10.7408 18.6223 11.3042 18.3604 11.8047C18.1019 12.3018 17.7108 12.6963 17.1871 12.9879C16.6668 13.2763 16.0122 13.4205 15.2234 13.4205H12.7276V12.1179H15.0842C15.5846 12.1179 15.9906 12.0317 16.3022 11.8594C16.6138 11.6837 16.8424 11.4451 16.9883 11.1435C17.1341 10.8419 17.207 10.4988 17.207 10.1143C17.207 9.72988 17.1341 9.38849 16.9883 9.0902C16.8424 8.7919 16.6121 8.55824 16.2972 8.3892C15.9857 8.22017 15.5747 8.13565 15.0643 8.13565H13.1353V17H11.5991ZM20.4348 17V9.36364H21.8716V10.5767H21.9512C22.0904 10.1657 22.3356 9.84257 22.687 9.60724C23.0416 9.36861 23.4426 9.24929 23.8901 9.24929C23.9829 9.24929 24.0923 9.2526 24.2182 9.25923C24.3475 9.26586 24.4486 9.27415 24.5215 9.28409V10.706C24.4618 10.6894 24.3558 10.6712 24.2033 10.6513C24.0508 10.6281 23.8984 10.6165 23.7459 10.6165C23.3946 10.6165 23.0814 10.6911 22.8063 10.8402C22.5345 10.986 22.3191 11.1899 22.16 11.4517C22.0009 11.7102 21.9213 12.0052 21.9213 12.3366V17H20.4348ZM28.8256 17.1541C28.0733 17.1541 27.4253 16.9934 26.8817 16.6719C26.3415 16.3471 25.9239 15.8913 25.6289 15.3047C25.3372 14.7147 25.1914 14.0237 25.1914 13.2315C25.1914 12.4493 25.3372 11.7599 25.6289 11.1634C25.9239 10.5668 26.3349 10.1011 26.8619 9.76633C27.3922 9.43158 28.012 9.2642 28.7212 9.2642C29.1521 9.2642 29.5697 9.33546 29.9741 9.47798C30.3784 9.6205 30.7414 9.84422 31.0629 10.1491C31.3844 10.4541 31.6379 10.8501 31.8235 11.3374C32.0091 11.8213 32.1019 12.4096 32.1019 13.1023V13.6293H26.0316V12.5156H30.6452C30.6452 12.1245 30.5657 11.7782 30.4066 11.4766C30.2475 11.1716 30.0238 10.9313 29.7354 10.7557C29.4504 10.58 29.1156 10.4922 28.7312 10.4922C28.3136 10.4922 27.949 10.5949 27.6374 10.8004C27.3292 11.0026 27.0906 11.2678 26.9215 11.5959C26.7558 11.9207 26.6729 12.2737 26.6729 12.6548V13.5249C26.6729 14.0353 26.7624 14.4695 26.9414 14.8274C27.1237 15.1854 27.3772 15.4588 27.7021 15.6477C28.0269 15.8333 28.4064 15.9261 28.8406 15.9261C29.1223 15.9261 29.3791 15.8864 29.6112 15.8068C29.8432 15.724 30.0437 15.6013 30.2127 15.4389C30.3817 15.2765 30.511 15.076 30.6005 14.8374L32.0075 15.0909C31.8948 15.5052 31.6926 15.8681 31.4009 16.1797C31.1126 16.4879 30.7496 16.7282 30.3121 16.9006C29.878 17.0696 29.3825 17.1541 28.8256 17.1541ZM39.4735 11.228L38.1262 11.4666C38.0699 11.2943 37.9804 11.1302 37.8578 10.9744C37.7385 10.8187 37.5761 10.6911 37.3706 10.5916C37.1651 10.4922 36.9082 10.4425 36.6 10.4425C36.179 10.4425 35.8277 10.5369 35.546 10.7259C35.2643 10.9115 35.1234 11.1518 35.1234 11.4467C35.1234 11.7019 35.2179 11.9074 35.4068 12.0632C35.5957 12.219 35.9006 12.3466 36.3216 12.446L37.5346 12.7244C38.2373 12.8868 38.7609 13.1371 39.1056 13.4751C39.4503 13.8132 39.6227 14.2524 39.6227 14.7926C39.6227 15.25 39.4901 15.6577 39.225 16.0156C38.9631 16.3703 38.5969 16.6487 38.1262 16.8509C37.6589 17.053 37.117 17.1541 36.5005 17.1541C35.6454 17.1541 34.9477 16.9718 34.4075 16.6072C33.8672 16.2393 33.5358 15.7173 33.4132 15.0412L34.85 14.8224C34.9395 15.197 35.1234 15.4804 35.4018 15.6726C35.6802 15.8615 36.0431 15.956 36.4906 15.956C36.9778 15.956 37.3672 15.8549 37.6589 15.6527C37.9506 15.4472 38.0964 15.197 38.0964 14.902C38.0964 14.6634 38.0069 14.4628 37.8279 14.3004C37.6523 14.138 37.3822 14.0154 37.0176 13.9325L35.725 13.6491C35.0124 13.4867 34.4854 13.2282 34.144 12.8736C33.8059 12.5189 33.6369 12.0698 33.6369 11.5263C33.6369 11.0755 33.7628 10.6811 34.0147 10.343C34.2666 10.005 34.6146 9.74148 35.0588 9.55256C35.5029 9.36032 36.0117 9.2642 36.585 9.2642C37.4103 9.2642 38.06 9.44318 38.5339 9.80114C39.0079 10.1558 39.3211 10.6314 39.4735 11.228ZM44.5483 17.1541C43.7959 17.1541 43.148 16.9934 42.6044 16.6719C42.0642 16.3471 41.6465 15.8913 41.3516 15.3047C41.0599 14.7147 40.9141 14.0237 40.9141 13.2315C40.9141 12.4493 41.0599 11.7599 41.3516 11.1634C41.6465 10.5668 42.0575 10.1011 42.5845 9.76633C43.1148 9.43158 43.7346 9.2642 44.4439 9.2642C44.8748 9.2642 45.2924 9.33546 45.6967 9.47798C46.1011 9.6205 46.464 9.84422 46.7855 10.1491C47.107 10.4541 47.3606 10.8501 47.5462 11.3374C47.7318 11.8213 47.8246 12.4096 47.8246 13.1023V13.6293H41.7543V12.5156H46.3679C46.3679 12.1245 46.2884 11.7782 46.1293 11.4766C45.9702 11.1716 45.7464 10.9313 45.4581 10.7557C45.1731 10.58 44.8383 10.4922 44.4538 10.4922C44.0362 10.4922 43.6716 10.5949 43.3601 10.8004C43.0518 11.0026 42.8132 11.2678 42.6442 11.5959C42.4785 11.9207 42.3956 12.2737 42.3956 12.6548V13.5249C42.3956 14.0353 42.4851 14.4695 42.6641 14.8274C42.8464 15.1854 43.0999 15.4588 43.4247 15.6477C43.7495 15.8333 44.129 15.9261 44.5632 15.9261C44.8449 15.9261 45.1018 15.8864 45.3338 15.8068C45.5658 15.724 45.7663 15.6013 45.9354 15.4389C46.1044 15.2765 46.2337 15.076 46.3232 14.8374L47.7301 15.0909C47.6174 15.5052 47.4152 15.8681 47.1236 16.1797C46.8352 16.4879 46.4723 16.7282 46.0348 16.9006C45.6006 17.0696 45.1051 17.1541 44.5483 17.1541ZM50.9604 12.4659V17H49.4739V9.36364H50.9007V10.6065H50.9952C51.1709 10.2022 51.446 9.87737 51.8205 9.6321C52.1983 9.38684 52.6739 9.2642 53.2473 9.2642C53.7677 9.2642 54.2234 9.37358 54.6145 9.59233C55.0056 9.80777 55.3089 10.1293 55.5243 10.5568C55.7398 10.9844 55.8475 11.513 55.8475 12.1428V17H54.361V12.3217C54.361 11.7682 54.2168 11.3357 53.9284 11.0241C53.6401 10.7093 53.244 10.5518 52.7402 10.5518C52.3955 10.5518 52.089 10.6264 51.8205 10.7756C51.5553 10.9247 51.3449 11.1435 51.1891 11.4318C51.0366 11.7169 50.9604 12.0616 50.9604 12.4659ZM61.4057 9.36364V10.5568H57.2346V9.36364H61.4057ZM58.3532 7.53409H59.8397V14.7578C59.8397 15.0462 59.8828 15.2633 59.9689 15.4091C60.0551 15.5516 60.1661 15.6494 60.302 15.7024C60.4412 15.7521 60.592 15.777 60.7544 15.777C60.8738 15.777 60.9782 15.7687 61.0676 15.7521C61.1571 15.7356 61.2267 15.7223 61.2765 15.7124L61.5449 16.9403C61.4587 16.9735 61.3361 17.0066 61.177 17.0398C61.0179 17.0762 60.8191 17.0961 60.5804 17.0994C60.1893 17.1061 59.8248 17.0365 59.4867 16.8906C59.1486 16.7448 58.8752 16.5194 58.6664 16.2145C58.4576 15.9096 58.3532 15.5268 58.3532 15.0661V7.53409ZM65.2724 17.169C64.7885 17.169 64.351 17.0795 63.9599 16.9006C63.5688 16.7183 63.2589 16.4548 63.0302 16.1101C62.8048 15.7654 62.6921 15.3428 62.6921 14.8423C62.6921 14.4115 62.775 14.0568 62.9407 13.7784C63.1064 13.5 63.3301 13.2796 63.6119 13.1172C63.8936 12.9548 64.2085 12.8321 64.5565 12.7493C64.9045 12.6664 65.2591 12.6035 65.6204 12.5604C66.0778 12.5073 66.449 12.4643 66.734 12.4311C67.0191 12.3946 67.2262 12.3366 67.3555 12.2571C67.4847 12.1776 67.5494 12.0483 67.5494 11.8693V11.8345C67.5494 11.4003 67.4267 11.0639 67.1815 10.8253C66.9395 10.5866 66.5782 10.4673 66.0977 10.4673C65.5972 10.4673 65.2028 10.5784 64.9144 10.8004C64.6294 11.0192 64.4322 11.2628 64.3228 11.5312L62.9258 11.2131C63.0915 10.7491 63.3335 10.3745 63.6516 10.0895C63.9731 9.80114 64.3427 9.59233 64.7603 9.46307C65.1779 9.33049 65.6171 9.2642 66.0778 9.2642C66.3827 9.2642 66.7058 9.30066 67.0472 9.37358C67.3919 9.44318 67.7134 9.57244 68.0117 9.76136C68.3133 9.95028 68.5603 10.2204 68.7525 10.5717C68.9447 10.9197 69.0408 11.3722 69.0408 11.929V17H67.5891V15.956H67.5295C67.4334 16.1482 67.2892 16.3371 67.0969 16.5227C66.9047 16.7083 66.6578 16.8625 66.3562 16.9851C66.0546 17.1077 65.6933 17.169 65.2724 17.169ZM65.5955 15.9759C66.0065 15.9759 66.3578 15.8946 66.6495 15.7322C66.9445 15.5698 67.1682 15.3577 67.3207 15.0959C67.4764 14.8307 67.5543 14.5473 67.5543 14.2457V13.2614C67.5013 13.3144 67.3986 13.3641 67.2461 13.4105C67.0969 13.4536 66.9263 13.4917 66.734 13.5249C66.5418 13.5547 66.3545 13.5829 66.1722 13.6094C65.9899 13.6326 65.8375 13.6525 65.7148 13.669C65.4265 13.7055 65.163 13.7668 64.9244 13.853C64.689 13.9392 64.5001 14.0634 64.3576 14.2259C64.2184 14.3849 64.1488 14.5971 64.1488 14.8622C64.1488 15.2301 64.2847 15.5085 64.5565 15.6974C64.8282 15.883 65.1746 15.9759 65.5955 15.9759ZM74.5854 9.36364V10.5568H70.4142V9.36364H74.5854ZM71.5328 7.53409H73.0194V14.7578C73.0194 15.0462 73.0624 15.2633 73.1486 15.4091C73.2348 15.5516 73.3458 15.6494 73.4817 15.7024C73.6209 15.7521 73.7717 15.777 73.9341 15.777C74.0534 15.777 74.1578 15.7687 74.2473 15.7521C74.3368 15.7356 74.4064 15.7223 74.4561 15.7124L74.7246 16.9403C74.6384 16.9735 74.5158 17.0066 74.3567 17.0398C74.1976 17.0762 73.9988 17.0961 73.7601 17.0994C73.369 17.1061 73.0044 17.0365 72.6664 16.8906C72.3283 16.7448 72.0549 16.5194 71.8461 16.2145C71.6373 15.9096 71.5328 15.5268 71.5328 15.0661V7.53409ZM76.2298 17V9.36364H77.7163V17H76.2298ZM76.9805 8.18537C76.7219 8.18537 76.4999 8.09919 76.3143 7.92685C76.132 7.75118 76.0408 7.54238 76.0408 7.30043C76.0408 7.05516 76.132 6.84635 76.3143 6.67401C76.4999 6.49834 76.7219 6.41051 76.9805 6.41051C77.239 6.41051 77.4594 6.49834 77.6417 6.67401C77.8273 6.84635 77.9201 7.05516 77.9201 7.30043C77.9201 7.54238 77.8273 7.75118 77.6417 7.92685C77.4594 8.09919 77.239 8.18537 76.9805 8.18537ZM82.9327 17.1541C82.2168 17.1541 81.592 16.9901 81.0584 16.6619C80.5248 16.3338 80.1105 15.8748 79.8155 15.2848C79.5205 14.6948 79.373 14.0054 79.373 13.2166C79.373 12.4245 79.5205 11.7318 79.8155 11.1385C80.1105 10.5452 80.5248 10.0845 81.0584 9.75639C81.592 9.42827 82.2168 9.2642 82.9327 9.2642C83.6486 9.2642 84.2734 9.42827 84.807 9.75639C85.3406 10.0845 85.7549 10.5452 86.0499 11.1385C86.3449 11.7318 86.4924 12.4245 86.4924 13.2166C86.4924 14.0054 86.3449 14.6948 86.0499 15.2848C85.7549 15.8748 85.3406 16.3338 84.807 16.6619C84.2734 16.9901 83.6486 17.1541 82.9327 17.1541ZM82.9377 15.9062C83.4017 15.9062 83.7862 15.7836 84.0911 15.5384C84.396 15.2931 84.6214 14.9666 84.7672 14.5589C84.9164 14.1513 84.9909 13.7022 84.9909 13.2116C84.9909 12.7244 84.9164 12.277 84.7672 11.8693C84.6214 11.4583 84.396 11.1286 84.0911 10.88C83.7862 10.6314 83.4017 10.5071 82.9377 10.5071C82.4703 10.5071 82.0826 10.6314 81.7743 10.88C81.4694 11.1286 81.2424 11.4583 81.0932 11.8693C80.9474 12.277 80.8745 12.7244 80.8745 13.2116C80.8745 13.7022 80.9474 14.1513 81.0932 14.5589C81.2424 14.9666 81.4694 15.2931 81.7743 15.5384C82.0826 15.7836 82.4703 15.9062 82.9377 15.9062ZM89.6381 12.4659V17H88.1516V9.36364H89.5785V10.6065H89.6729C89.8486 10.2022 90.1237 9.87737 90.4982 9.6321C90.8761 9.38684 91.3517 9.2642 91.9251 9.2642C92.4454 9.2642 92.9012 9.37358 93.2923 9.59233C93.6834 9.80777 93.9866 10.1293 94.2021 10.5568C94.4175 10.9844 94.5252 11.513 94.5252 12.1428V17H93.0387V12.3217C93.0387 11.7682 92.8945 11.3357 92.6062 11.0241C92.3178 10.7093 91.9218 10.5518 91.418 10.5518C91.0733 10.5518 90.7667 10.6264 90.4982 10.7756C90.2331 10.9247 90.0226 11.1435 89.8668 11.4318C89.7144 11.7169 89.6381 12.0616 89.6381 12.4659Z" fill="#C11574"/>
</g>
</svg>
