<svg width="83" height="24" viewBox="0 0 83 24" fill="none" xmlns="http://www.w3.org/2000/svg">
<g style="mix-blend-mode:multiply">
<rect width="83" height="24" rx="12" fill="#EEF4FF"/>
<path d="M11.4672 17V6.81818H15.0965C15.8853 6.81818 16.5399 6.95407 17.0603 7.22585C17.584 7.49763 17.9751 7.87382 18.2336 8.3544C18.4921 8.83168 18.6214 9.38352 18.6214 10.0099C18.6214 10.633 18.4904 11.1816 18.2286 11.6555C17.9701 12.1262 17.579 12.4924 17.0553 12.7543C16.5349 13.0161 15.8804 13.147 15.0915 13.147H12.3422V11.8246H14.9523C15.4495 11.8246 15.8538 11.7533 16.1654 11.6108C16.4803 11.4683 16.7106 11.2611 16.8564 10.9893C17.0023 10.7176 17.0752 10.3911 17.0752 10.0099C17.0752 9.62547 17.0006 9.29238 16.8515 9.01065C16.7056 8.72893 16.4753 8.51349 16.1604 8.36435C15.8489 8.21188 15.4395 8.13565 14.9324 8.13565H13.0035V17H11.4672ZM16.4935 12.4062L19.0091 17H17.2591L14.7932 12.4062H16.4935ZM23.5669 17.1541C22.8145 17.1541 22.1665 16.9934 21.623 16.6719C21.0827 16.3471 20.6651 15.8913 20.3701 15.3047C20.0785 14.7147 19.9326 14.0237 19.9326 13.2315C19.9326 12.4493 20.0785 11.7599 20.3701 11.1634C20.6651 10.5668 21.0761 10.1011 21.6031 9.76633C22.1334 9.43158 22.7532 9.2642 23.4624 9.2642C23.8933 9.2642 24.3109 9.33546 24.7153 9.47798C25.1196 9.6205 25.4826 9.84422 25.8041 10.1491C26.1256 10.4541 26.3791 10.8501 26.5647 11.3374C26.7503 11.8213 26.8431 12.4096 26.8431 13.1023V13.6293H20.7728V12.5156H25.3865C25.3865 12.1245 25.3069 11.7782 25.1478 11.4766C24.9887 11.1716 24.765 10.9313 24.4767 10.7557C24.1916 10.58 23.8569 10.4922 23.4724 10.4922C23.0548 10.4922 22.6902 10.5949 22.3786 10.8004C22.0704 11.0026 21.8318 11.2678 21.6627 11.5959C21.497 11.9207 21.4142 12.2737 21.4142 12.6548V13.5249C21.4142 14.0353 21.5036 14.4695 21.6826 14.8274C21.8649 15.1854 22.1185 15.4588 22.4433 15.6477C22.7681 15.8333 23.1476 15.9261 23.5818 15.9261C23.8635 15.9261 24.1204 15.8864 24.3524 15.8068C24.5844 15.724 24.7849 15.6013 24.9539 15.4389C25.123 15.2765 25.2522 15.076 25.3417 14.8374L26.7487 15.0909C26.636 15.5052 26.4338 15.8681 26.1421 16.1797C25.8538 16.4879 25.4909 16.7282 25.0534 16.9006C24.6192 17.0696 24.1237 17.1541 23.5669 17.1541ZM34.2148 11.228L32.8675 11.4666C32.8111 11.2943 32.7216 11.1302 32.599 10.9744C32.4797 10.8187 32.3173 10.6911 32.1118 10.5916C31.9063 10.4922 31.6494 10.4425 31.3412 10.4425C30.9202 10.4425 30.5689 10.5369 30.2872 10.7259C30.0055 10.9115 29.8646 11.1518 29.8646 11.4467C29.8646 11.7019 29.9591 11.9074 30.148 12.0632C30.3369 12.219 30.6418 12.3466 31.0628 12.446L32.2758 12.7244C32.9785 12.8868 33.5022 13.1371 33.8469 13.4751C34.1916 13.8132 34.3639 14.2524 34.3639 14.7926C34.3639 15.25 34.2313 15.6577 33.9662 16.0156C33.7043 16.3703 33.3381 16.6487 32.8675 16.8509C32.4001 17.053 31.8582 17.1541 31.2417 17.1541C30.3866 17.1541 29.689 16.9718 29.1487 16.6072C28.6085 16.2393 28.277 15.7173 28.1544 15.0412L29.5912 14.8224C29.6807 15.197 29.8646 15.4804 30.143 15.6726C30.4214 15.8615 30.7844 15.956 31.2318 15.956C31.719 15.956 32.1085 15.8549 32.4001 15.6527C32.6918 15.4472 32.8376 15.197 32.8376 14.902C32.8376 14.6634 32.7481 14.4628 32.5692 14.3004C32.3935 14.138 32.1234 14.0154 31.7588 13.9325L30.4662 13.6491C29.7536 13.4867 29.2266 13.2282 28.8852 12.8736C28.5471 12.5189 28.3781 12.0698 28.3781 11.5263C28.3781 11.0755 28.5041 10.6811 28.7559 10.343C29.0078 10.005 29.3559 9.74148 29.8 9.55256C30.2441 9.36032 30.7529 9.2642 31.3263 9.2642C32.1515 9.2642 32.8012 9.44318 33.2751 9.80114C33.7491 10.1558 34.0623 10.6314 34.2148 11.228ZM39.2895 17.1541C38.5371 17.1541 37.8892 16.9934 37.3456 16.6719C36.8054 16.3471 36.3878 15.8913 36.0928 15.3047C35.8011 14.7147 35.6553 14.0237 35.6553 13.2315C35.6553 12.4493 35.8011 11.7599 36.0928 11.1634C36.3878 10.5668 36.7987 10.1011 37.3257 9.76633C37.856 9.43158 38.4758 9.2642 39.1851 9.2642C39.616 9.2642 40.0336 9.33546 40.4379 9.47798C40.8423 9.6205 41.2052 9.84422 41.5267 10.1491C41.8482 10.4541 42.1018 10.8501 42.2874 11.3374C42.473 11.8213 42.5658 12.4096 42.5658 13.1023V13.6293H36.4955V12.5156H41.1091C41.1091 12.1245 41.0296 11.7782 40.8705 11.4766C40.7114 11.1716 40.4877 10.9313 40.1993 10.7557C39.9143 10.58 39.5795 10.4922 39.195 10.4922C38.7774 10.4922 38.4128 10.5949 38.1013 10.8004C37.7931 11.0026 37.5544 11.2678 37.3854 11.5959C37.2197 11.9207 37.1368 12.2737 37.1368 12.6548V13.5249C37.1368 14.0353 37.2263 14.4695 37.4053 14.8274C37.5876 15.1854 37.8411 15.4588 38.1659 15.6477C38.4907 15.8333 38.8702 15.9261 39.3044 15.9261C39.5861 15.9261 39.843 15.8864 40.075 15.8068C40.307 15.724 40.5075 15.6013 40.6766 15.4389C40.8456 15.2765 40.9749 15.076 41.0644 14.8374L42.4713 15.0909C42.3586 15.5052 42.1565 15.8681 41.8648 16.1797C41.5764 16.4879 41.2135 16.7282 40.776 16.9006C40.3418 17.0696 39.8463 17.1541 39.2895 17.1541ZM46.4374 17.169C45.9535 17.169 45.516 17.0795 45.1249 16.9006C44.7338 16.7183 44.4239 16.4548 44.1952 16.1101C43.9698 15.7654 43.8572 15.3428 43.8572 14.8423C43.8572 14.4115 43.94 14.0568 44.1057 13.7784C44.2715 13.5 44.4952 13.2796 44.7769 13.1172C45.0586 12.9548 45.3735 12.8321 45.7215 12.7493C46.0695 12.6664 46.4242 12.6035 46.7854 12.5604C47.2428 12.5073 47.614 12.4643 47.8991 12.4311C48.1841 12.3946 48.3912 12.3366 48.5205 12.2571C48.6498 12.1776 48.7144 12.0483 48.7144 11.8693V11.8345C48.7144 11.4003 48.5918 11.0639 48.3465 10.8253C48.1046 10.5866 47.7433 10.4673 47.2627 10.4673C46.7622 10.4673 46.3678 10.5784 46.0795 10.8004C45.7944 11.0192 45.5972 11.2628 45.4878 11.5312L44.0908 11.2131C44.2565 10.7491 44.4985 10.3745 44.8167 10.0895C45.1382 9.80114 45.5077 9.59233 45.9253 9.46307C46.343 9.33049 46.7821 9.2642 47.2428 9.2642C47.5477 9.2642 47.8709 9.30066 48.2123 9.37358C48.557 9.44318 48.8785 9.57244 49.1768 9.76136C49.4784 9.95028 49.7253 10.2204 49.9175 10.5717C50.1098 10.9197 50.2059 11.3722 50.2059 11.929V17H48.7542V15.956H48.6945C48.5984 16.1482 48.4542 16.3371 48.262 16.5227C48.0698 16.7083 47.8228 16.8625 47.5212 16.9851C47.2196 17.1077 46.8583 17.169 46.4374 17.169ZM46.7606 15.9759C47.1715 15.9759 47.5229 15.8946 47.8145 15.7322C48.1095 15.5698 48.3332 15.3577 48.4857 15.0959C48.6415 14.8307 48.7194 14.5473 48.7194 14.2457V13.2614C48.6663 13.3144 48.5636 13.3641 48.4111 13.4105C48.262 13.4536 48.0913 13.4917 47.8991 13.5249C47.7068 13.5547 47.5196 13.5829 47.3373 13.6094C47.155 13.6326 47.0025 13.6525 46.8799 13.669C46.5915 13.7055 46.328 13.7668 46.0894 13.853C45.8541 13.9392 45.6652 14.0634 45.5226 14.2259C45.3834 14.3849 45.3138 14.5971 45.3138 14.8622C45.3138 15.2301 45.4497 15.5085 45.7215 15.6974C45.9933 15.883 46.3396 15.9759 46.7606 15.9759ZM52.1858 17V9.36364H53.6226V10.5767H53.7021C53.8414 10.1657 54.0866 9.84257 54.4379 9.60724C54.7926 9.36861 55.1936 9.24929 55.6411 9.24929C55.7339 9.24929 55.8432 9.2526 55.9692 9.25923C56.0985 9.26586 56.1995 9.27415 56.2725 9.28409V10.706C56.2128 10.6894 56.1067 10.6712 55.9543 10.6513C55.8018 10.6281 55.6494 10.6165 55.4969 10.6165C55.1456 10.6165 54.8324 10.6911 54.5573 10.8402C54.2855 10.986 54.07 11.1899 53.911 11.4517C53.7519 11.7102 53.6723 12.0052 53.6723 12.3366V17H52.1858ZM60.502 17.1541C59.7629 17.1541 59.1266 16.9867 58.593 16.652C58.0626 16.3139 57.655 15.8482 57.3699 15.255C57.0849 14.6617 56.9424 13.9822 56.9424 13.2166C56.9424 12.4411 57.0882 11.7566 57.3799 11.1634C57.6715 10.5668 58.0825 10.1011 58.6128 9.76633C59.1431 9.43158 59.7679 9.2642 60.4871 9.2642C61.0671 9.2642 61.5842 9.37192 62.0383 9.58736C62.4923 9.79948 62.8586 10.0978 63.137 10.4822C63.4187 10.8667 63.5861 11.3158 63.6391 11.8295H62.1924C62.1128 11.4716 61.9305 11.1634 61.6455 10.9048C61.3638 10.6463 60.9859 10.517 60.512 10.517C60.0977 10.517 59.7348 10.6264 59.4232 10.8452C59.115 11.0606 58.8747 11.3688 58.7023 11.7699C58.53 12.1676 58.4438 12.6383 58.4438 13.1818C58.4438 13.7386 58.5283 14.2192 58.6974 14.6236C58.8664 15.0279 59.105 15.3411 59.4133 15.5632C59.7248 15.7853 60.0911 15.8963 60.512 15.8963C60.7937 15.8963 61.0489 15.8449 61.2776 15.7422C61.5096 15.6361 61.7035 15.4853 61.8593 15.2898C62.0184 15.0942 62.1294 14.8589 62.1924 14.5838H63.6391C63.5861 15.0777 63.4253 15.5185 63.1569 15.9062C62.8884 16.294 62.5288 16.599 62.078 16.821C61.6306 17.0431 61.1053 17.1541 60.502 17.1541ZM66.7153 12.4659V17H65.2288V6.81818H66.6954V10.6065H66.7899C66.9688 10.1955 67.2423 9.86908 67.6102 9.62713C67.9781 9.38518 68.4587 9.2642 69.0519 9.2642C69.5756 9.2642 70.033 9.37192 70.4241 9.58736C70.8185 9.80279 71.1234 10.1243 71.3389 10.5518C71.5576 10.9761 71.667 11.5064 71.667 12.1428V17H70.1805V12.3217C70.1805 11.7616 70.0363 11.3274 69.748 11.0192C69.4596 10.7076 69.0586 10.5518 68.5448 10.5518C68.1935 10.5518 67.8786 10.6264 67.6002 10.7756C67.3251 10.9247 67.108 11.1435 66.949 11.4318C66.7932 11.7169 66.7153 12.0616 66.7153 12.4659Z" fill="#3538CD"/>
</g>
</svg>
