<svg width="96" height="40" viewBox="0 0 96 40" fill="none" xmlns="http://www.w3.org/2000/svg">
<rect width="96" height="40" rx="20" fill="white"/>
<rect x="16" y="8" width="24" height="24" rx="12" fill="#090D1F"/>
<path d="M28 27.25C24 27.25 20.75 24 20.75 20C20.75 16 24 12.75 28 12.75C32 12.75 35.25 16 35.25 20C35.25 24 32 27.25 28 27.25ZM28 14.25C24.83 14.25 22.25 16.83 22.25 20C22.25 23.17 24.83 25.75 28 25.75C31.17 25.75 33.75 23.17 33.75 20C33.75 16.83 31.17 14.25 28 14.25Z" fill="#090D1F"/>
<path d="M28 30.96C27.45 30.96 27 30.55 27 30V29.92C27 29.37 27.45 28.92 28 28.92C28.55 28.92 29 29.37 29 29.92C29 30.47 28.55 30.96 28 30.96ZM35.14 28.14C34.88 28.14 34.63 28.04 34.43 27.85L34.3 27.72C33.91 27.33 33.91 26.7 34.3 26.31C34.69 25.92 35.32 25.92 35.71 26.31L35.84 26.44C36.23 26.83 36.23 27.46 35.84 27.85C35.65 28.04 35.4 28.14 35.14 28.14ZM20.86 28.14C20.6 28.14 20.35 28.04 20.15 27.85C19.76 27.46 19.76 26.83 20.15 26.44L20.28 26.31C20.67 25.92 21.3 25.92 21.69 26.31C22.08 26.7 22.08 27.33 21.69 27.72L21.56 27.85C21.37 28.04 21.11 28.14 20.86 28.14ZM38 21H37.92C37.37 21 36.92 20.55 36.92 20C36.92 19.45 37.37 19 37.92 19C38.47 19 38.96 19.45 38.96 20C38.96 20.55 38.55 21 38 21ZM18.08 21H18C17.45 21 17 20.55 17 20C17 19.45 17.45 19 18 19C18.55 19 19.04 19.45 19.04 20C19.04 20.55 18.63 21 18.08 21ZM35.01 13.99C34.75 13.99 34.5 13.89 34.3 13.7C33.91 13.31 33.91 12.68 34.3 12.29L34.43 12.16C34.82 11.77 35.45 11.77 35.84 12.16C36.23 12.55 36.23 13.18 35.84 13.57L35.71 13.7C35.52 13.89 35.27 13.99 35.01 13.99ZM20.99 13.99C20.73 13.99 20.48 13.89 20.28 13.7L20.15 13.56C19.76 13.17 19.76 12.54 20.15 12.15C20.54 11.76 21.17 11.76 21.56 12.15L21.69 12.28C22.08 12.67 22.08 13.3 21.69 13.69C21.5 13.89 21.24 13.99 20.99 13.99ZM28 11.04C27.45 11.04 27 10.63 27 10.08V10C27 9.45 27.45 9 28 9C28.55 9 29 9.45 29 10C29 10.55 28.55 11.04 28 11.04Z" fill="#090D1F"/>
<path d="M64.2622 9.96191C64.8149 9.73204 65.1904 9.72364 65.4302 9.77148C65.6695 9.81935 65.8174 9.93212 65.8999 10.0176L65.9067 10.0234C65.9915 10.1082 66.0993 10.2551 66.144 10.4844C66.1886 10.7128 66.1791 11.0693 65.9517 11.5898V11.5908C65.4642 12.7141 65.2198 13.9127 65.23 15.1416V15.1426C65.2513 19.8454 69.1476 23.8168 73.897 24.0088V24.0098C74.5876 24.0416 75.265 23.9878 75.9175 23.8721H75.9194C76.5024 23.7661 76.8652 23.8388 77.0845 23.9355C77.3033 24.0321 77.4222 24.171 77.4849 24.2725C77.5496 24.3773 77.6228 24.5481 77.6138 24.7881C77.6046 25.0282 77.5104 25.3861 77.1577 25.8623L77.1567 25.8652C75.1323 28.6345 71.9124 30.25 68.4595 30.25C68.2872 30.25 68.1318 30.2502 67.979 30.2412L67.9722 30.2402C62.7877 30.0087 58.431 25.9519 57.8257 20.9336L57.7788 20.4443C57.4545 15.9417 60.0581 11.7303 64.2622 9.96191ZM65.1704 10.25C65.0007 10.25 64.7741 10.2889 64.4663 10.4189C60.4611 12.1009 57.9762 16.1188 58.271 20.4043V20.4053C58.6294 25.4235 62.8989 29.5163 67.9858 29.7383V29.7393C71.4436 29.9074 74.7235 28.3306 76.7427 25.5752L76.7437 25.5762L76.7466 25.5703C76.9189 25.3291 77.0111 25.141 77.0581 25.0156L77.2837 24.4141L76.645 24.3428C76.546 24.3318 76.4017 24.3233 76.2056 24.3457L76.0024 24.3779C75.309 24.5014 74.5846 24.5491 73.8696 24.5205C68.8532 24.3209 64.7502 20.107 64.7202 15.1602C64.7202 13.8488 64.9763 12.5897 65.4956 11.4072C65.624 11.1247 65.653 10.9202 65.6665 10.8125L65.7368 10.25H65.1704Z" stroke="#090D1F"/>
</svg>
