<svg width="96" height="40" viewBox="0 0 96 40" fill="none" xmlns="http://www.w3.org/2000/svg">
<rect width="96" height="40" rx="20" fill="#090D1F"/>
<path d="M28 27.25C24 27.25 20.75 24 20.75 20C20.75 16 24 12.75 28 12.75C32 12.75 35.25 16 35.25 20C35.25 24 32 27.25 28 27.25ZM28 14.25C24.83 14.25 22.25 16.83 22.25 20C22.25 23.17 24.83 25.75 28 25.75C31.17 25.75 33.75 23.17 33.75 20C33.75 16.83 31.17 14.25 28 14.25Z" fill="white"/>
<path d="M28 30.96C27.45 30.96 27 30.55 27 30V29.92C27 29.37 27.45 28.92 28 28.92C28.55 28.92 29 29.37 29 29.92C29 30.47 28.55 30.96 28 30.96ZM35.14 28.14C34.88 28.14 34.63 28.04 34.43 27.85L34.3 27.72C33.91 27.33 33.91 26.7 34.3 26.31C34.69 25.92 35.32 25.92 35.71 26.31L35.84 26.44C36.23 26.83 36.23 27.46 35.84 27.85C35.65 28.04 35.4 28.14 35.14 28.14ZM20.86 28.14C20.6 28.14 20.35 28.04 20.15 27.85C19.76 27.46 19.76 26.83 20.15 26.44L20.28 26.31C20.67 25.92 21.3 25.92 21.69 26.31C22.08 26.7 22.08 27.33 21.69 27.72L21.56 27.85C21.37 28.04 21.11 28.14 20.86 28.14ZM38 21H37.92C37.37 21 36.92 20.55 36.92 20C36.92 19.45 37.37 19 37.92 19C38.47 19 38.96 19.45 38.96 20C38.96 20.55 38.55 21 38 21ZM18.08 21H18C17.45 21 17 20.55 17 20C17 19.45 17.45 19 18 19C18.55 19 19.04 19.45 19.04 20C19.04 20.55 18.63 21 18.08 21ZM35.01 13.99C34.75 13.99 34.5 13.89 34.3 13.7C33.91 13.31 33.91 12.68 34.3 12.29L34.43 12.16C34.82 11.77 35.45 11.77 35.84 12.16C36.23 12.55 36.23 13.18 35.84 13.57L35.71 13.7C35.52 13.89 35.27 13.99 35.01 13.99ZM20.99 13.99C20.73 13.99 20.48 13.89 20.28 13.7L20.15 13.56C19.76 13.17 19.76 12.54 20.15 12.15C20.54 11.76 21.17 11.76 21.56 12.15L21.69 12.28C22.08 12.67 22.08 13.3 21.69 13.69C21.5 13.89 21.24 13.99 20.99 13.99ZM28 11.04C27.45 11.04 27 10.63 27 10.08V10C27 9.45 27.45 9 28 9C28.55 9 29 9.45 29 10C29 10.55 28.55 11.04 28 11.04Z" fill="white"/>
<rect x="56" y="8" width="24" height="24" rx="12" fill="white"/>
</svg>
